<svg width="512" height="512" viewBox="0 0 512 512" fill="none" xmlns="http://www.w3.org/2000/svg">
  <defs>
    <linearGradient id="gradient" x1="0%" y1="0%" x2="100%" y2="100%">
      <stop offset="0%" style="stop-color:#9333ea"/>
      <stop offset="100%" style="stop-color:#7c3aed"/>
    </linearGradient>
  </defs>
  <!-- Background rounded square -->
  <rect width="512" height="512" rx="96" fill="url(#gradient)"/>
  <!-- Cloud icon -->
  <path d="M384 288c35.3 0 64-28.7 64-64 0-35.3-28.7-64-64-64-4.5 0-8.9 0.5-13.2 1.4C359.5 119.1 316.5 88 266 88c-63.4 0-115.1 49.3-119.5 111.5C106.5 211.5 72 253.6 72 304c0 57.4 46.6 104 104 104h208c35.3 0 64-28.7 64-64 0-30.9-22-56.7-51.2-62.6C386.9 279.3 384 283.5 384 288z" fill="white" fill-opacity="0.9" transform="translate(0, -20)"/>
  <!-- Upload arrow -->
  <path d="M256 352V240M256 240L200 296M256 240L312 296" stroke="white" stroke-width="32" stroke-linecap="round" stroke-linejoin="round" transform="translate(0, 10)"/>
</svg>
